<svg xmlns="http://www.w3.org/2000/svg" viewBox="0 0 192 192">
  <rect width="192" height="192" rx="38" fill="#05050f"/>
  <rect x="14" y="14" width="164" height="164" rx="28" fill="none" stroke="#00e5ff" stroke-width="7"/>
  <path d="M51 119c0-38 30-68 69-68 23 0 41 14 41 34 0 24-22 37-48 37H79"
        fill="none" stroke="#39ff14" stroke-width="21" stroke-linecap="round" stroke-linejoin="round"/>
  <path d="M51 119c0-38 30-68 69-68 23 0 41 14 41 34 0 24-22 37-48 37H79"
        fill="none" stroke="#9dff6e" stroke-width="9" stroke-linecap="round" stroke-linejoin="round"/>
  <circle cx="120" cy="51" r="17" fill="#39ff14"/>
  <circle cx="126" cy="47" r="4" fill="#05050f"/>
  <circle cx="145" cy="129" r="15" fill="#ff2a2a"/>
  <path d="M151 112c8-10 16-9 21-4-8 2-14 6-18 12z" fill="#39ff14"/>
</svg>
